name Walk8.mot
datacolumns 19
datarows 12
range 2.78100000 2.79200000
endheader

                time	   L_ground_force_vx	   L_ground_force_vy	   L_ground_force_vz	   L_ground_force_px	   L_ground_force_py	   L_ground_force_pz	   R_ground_force_vx	   R_ground_force_vy	   R_ground_force_vz	   R_ground_force_px	   R_ground_force_py	   R_ground_force_pz	   L_ground_torque_x	   L_ground_torque_y	   L_ground_torque_z	   R_ground_torque_x	   R_ground_torque_y	   R_ground_torque_z	
          2.78100000	          0.00000000	          0.00000000	          0.00000000	          0.00000000	          0.00000000	          0.00000000	          0.00000000	          0.00000000	          0.00000000	          0.00000000	          0.00000000	          0.00000000	          0.00000000	          0.00000000	          0.00000000	          0.00000000	          0.00000000	          0.00000000	
          2.78200000	          0.00000000	          0.00000000	          0.00000000	          0.00000000	          0.00000000	          0.00000000	          0.00000000	          0.00000000	          0.00000000	          0.00000000	          0.00000000	          0.00000000	          0.00000000	          0.00000000	          0.00000000	          0.00000000	          0.00000000	          0.00000000	
          2.78300000	          0.00000000	          0.00000000	          0.00000000	          0.00000000	          0.00000000	          0.00000000	          0.00000000	          0.00000000	          0.00000000	          0.00000000	          0.00000000	          0.00000000	          0.00000000	          0.00000000	          0.00000000	          0.00000000	          0.00000000	          0.00000000	
          2.78400000	          0.00000000	          0.00000000	          0.00000000	          0.00000000	          0.00000000	          0.00000000	         -2.82776222	         16.90363056	         -1.32892138	         -0.32688787	          0.00000000	          0.04521707	          0.00000000	          0.00000000	          0.00000000	          0.00000000	          0.02621979	          0.00000000	
          2.78500000	          0.00000000	          0.00000000	          0.00000000	          0.00000000	          0.00000000	          0.00000000	         -3.77121913	         31.12826548	         -1.72215540	         -0.32448184	          0.00000000	          0.04225017	          0.00000000	          0.00000000	          0.00000000	          0.00000000	          0.04347795	          0.00000000	
          2.78600000	          0.00000000	          0.00000000	          0.00000000	          0.00000000	          0.00000000	          0.00000000	         -4.45843346	         51.46730287	         -1.92506589	         -0.32313078	          0.00000000	          0.04040570	          0.00000000	          0.00000000	          0.00000000	          0.00000000	          0.07417496	          0.00000000	
          2.78700000	          0.00000000	          0.00000000	          0.00000000	          0.00000000	          0.00000000	          0.00000000	         -4.76091993	         78.66177099	         -1.83613002	         -0.32251612	          0.00000000	          0.03910122	          0.00000000	          0.00000000	          0.00000000	          0.00000000	          0.11853490	          0.00000000	
          2.78800000	          0.00000000	          0.00000000	          0.00000000	          0.00000000	          0.00000000	          0.00000000	         -4.60081487	        112.35905425	         -1.40443961	         -0.32219509	          0.00000000	          0.03814857	          0.00000000	          0.00000000	          0.00000000	          0.00000000	          0.17711012	          0.00000000	
          2.78900000	          0.00000000	          0.00000000	          0.00000000	          0.00000000	          0.00000000	          0.00000000	         -3.95245003	        150.53266344	         -0.67364687	         -0.32188115	          0.00000000	          0.03756407	          0.00000000	          0.00000000	          0.00000000	          0.00000000	          0.24628077	          0.00000000	
          2.79000000	          0.00000000	          0.00000000	          0.00000000	          0.00000000	          0.00000000	          0.00000000	         -2.87149288	        189.59688902	          0.19553571	         -0.32152371	          0.00000000	          0.03734628	          0.00000000	          0.00000000	          0.00000000	          0.00000000	          0.31380612	          0.00000000	
          2.79100000	          0.00000000	          0.00000000	          0.00000000	          0.00000000	          0.00000000	          0.00000000	         -1.52504924	        225.39543329	          0.95638976	         -0.32119958	          0.00000000	          0.03745742	          0.00000000	          0.00000000	          0.00000000	          0.00000000	          0.36356392	          0.00000000	
          2.79200000	          0.00000000	          0.00000000	          0.00000000	          0.00000000	          0.00000000	          0.00000000	         -0.17897482	        254.62011192	          1.33706844	         -0.32099033	          0.00000000	          0.03784806	          0.00000000	          0.00000000	          0.00000000	          0.00000000	          0.38437848	          0.00000000	
